<?xml version="1.0" encoding="UTF-8"?>
<svg id="Capa_2" data-name="Capa 2" xmlns="http://www.w3.org/2000/svg" viewBox="0 0 996.57 996.57">
  <defs>
    <style>
      .cls-1 {
        fill: #fff;
      }

      .cls-1, .cls-2 {
        stroke-width: 0px;
      }

      .cls-2 {
        fill: #004763;
      }
    </style>
  </defs>
  <g id="Layer_1" data-name="Layer 1">
    <rect class="cls-2" width="996.57" height="996.57"/>
    <g>
      <g>
        <path class="cls-1" d="M238.05,416.25v-.39c0-37.74,27.86-71.53,69.75-71.53s69.36,33.4,69.36,71.14v.39c0,37.74-27.86,71.54-69.76,71.54s-69.36-33.4-69.36-71.14ZM366.49,416.25v-.39c0-34.19-24.9-62.24-59.08-62.24s-58.69,27.67-58.69,61.85v.39c0,34.19,24.9,62.24,59.08,62.24s58.69-27.66,58.69-61.85ZM321.84,308.56l11.66,5.53-21.14,17.79h-8.89l18.38-23.32Z"/>
        <path class="cls-1" d="M422.04,346.7h10.28v128.84h81.21v9.49h-91.49v-138.33Z"/>
        <path class="cls-1" d="M555.64,346.7h10.28v138.33h-10.28v-138.33Z"/>
        <path class="cls-1" d="M611.17,479.29l94.65-123.3h-91.29v-9.29h105.92v5.73l-94.65,123.31h94.65v9.29h-109.27v-5.73Z"/>
        <path class="cls-1" d="M762.95,485.02h-10.67l64.42-139.31h9.88l64.42,139.31h-11.26l-58.29-128.05-58.49,128.05Z"/>
      </g>
      <path class="cls-1" d="M102.28,626.88v-79.73h24.33v78.74c0,25.72,13.26,39.57,35.02,39.57s34.82-13.05,34.82-38.58v-79.73h24.33v78.54c0,41.35-23.34,62.12-59.55,62.12s-58.96-20.77-58.96-60.93ZM173.9,507.19l21.76,9.5-25.32,19.19h-18.6l22.16-28.68Z"/>
      <path class="cls-1" d="M289.85,547.15h22.55l74.19,95.75v-95.75h23.94v138.48h-20.38l-76.36-98.52v98.52h-23.94v-138.48Z"/>
      <path class="cls-1" d="M483.16,547.15h24.33v138.48h-24.33v-138.48Z"/>
      <path class="cls-1" d="M573.97,616.79v-.39c0-39.37,29.48-71.62,71.42-71.62,25.52,0,40.95,8.9,54.21,21.56l-15.63,18c-11.08-10.29-22.95-17.21-38.77-17.21-26.51,0-45.7,21.76-45.7,48.86v.4c0,27.1,19.19,49.26,45.7,49.26,17.01,0,27.89-6.92,39.76-18l15.63,15.83c-14.44,15.04-30.27,24.53-56.19,24.53-40.36,0-70.43-31.46-70.43-71.22Z"/>
      <path class="cls-1" d="M774.8,685.64h-24.93l60.93-139.47h22.55l60.93,139.47h-25.72l-46.89-110.39-46.89,110.39Z"/>
      <path class="cls-1" d="M152.47,346.7h-50.19v9.49h49.4c24.9,0,41.89,11.46,41.89,33.39v.4c0,20.55-17.39,33.99-43.08,33.99h-48.22v61.06h10.28v-51.58h37.35c28.85,0,53.94-15.02,53.94-44.07v-.39c0-26.68-20.95-42.29-51.38-42.29Z"/>
    </g>
  </g>
</svg>